<svg width="85" height="106" viewBox="0 0 85 106" fill="none" xmlns="http://www.w3.org/2000/svg">
<g filter="url(#filter0_d_0_1080)">
<circle cx="31.915" cy="48.915" r="17.915" fill="white"/>
</g>
<g clip-path="url(#clip0_0_1080)">
<path d="M31.8061 39.9597C31.7988 39.9597 31.7959 39.9597 31.793 39.9597C31.7873 39.9597 31.7873 39.9597 31.7858 39.9597C31.7858 39.9597 31.7858 39.9597 31.7836 39.9597C31.7815 39.9597 31.7786 39.9597 31.7757 39.9597C31.7742 39.9597 31.7742 39.9597 31.7742 39.9597C31.7742 39.9597 31.7742 39.9597 31.7713 39.9597C31.7518 39.9554 31.746 39.9583 31.7315 39.9583C29.4137 39.9583 27.1589 40.8773 25.4924 42.4932L23.6601 40.6327C23.5711 40.5459 23.4365 40.5184 23.3265 40.5647C23.2115 40.6139 23.1348 40.7239 23.1348 40.8498V46.8907C23.1348 47.0607 23.273 47.1982 23.4409 47.1982H29.4079C29.4116 47.1982 29.4181 47.1982 29.4224 47.1982C29.5917 47.1982 29.7292 47.0615 29.7292 46.8907C29.7292 46.7778 29.6677 46.6779 29.5758 46.6251L27.766 44.7936C28.8392 43.7573 30.2394 43.19 31.775 43.19C34.9083 43.2103 37.4605 45.7756 37.4605 48.961C37.4367 52.0914 34.8699 54.6393 31.6859 54.6393L31.6932 57.8725H31.7373C36.6428 57.8725 40.6619 53.8795 40.6937 48.9169C40.6937 44.0142 36.7109 40.001 31.8061 39.9597Z" fill="#27AE60"/>
</g>
<defs>
<filter id="filter0_d_0_1080" x="-21" y="0" width="105.83" height="105.83" filterUnits="userSpaceOnUse" color-interpolation-filters="sRGB">
<feFlood flood-opacity="0" result="BackgroundImageFix"/>
<feColorMatrix in="SourceAlpha" type="matrix" values="0 0 0 0 0 0 0 0 0 0 0 0 0 0 0 0 0 0 127 0" result="hardAlpha"/>
<feOffset dy="4"/>
<feGaussianBlur stdDeviation="17.5"/>
<feColorMatrix type="matrix" values="0 0 0 0 0.0980392 0 0 0 0 0.509804 0 0 0 0 0.741176 0 0 0 0.18 0"/>
<feBlend mode="normal" in2="BackgroundImageFix" result="effect1_dropShadow_0_1080"/>
<feBlend mode="normal" in="SourceGraphic" in2="effect1_dropShadow_0_1080" result="shape"/>
</filter>
<clipPath id="clip0_0_1080">
<rect width="17.915" height="17.915" fill="white" transform="translate(22.957 39.9575)"/>
</clipPath>
</defs>
</svg>
