<svg width="85" height="106" viewBox="0 0 85 106" fill="none" xmlns="http://www.w3.org/2000/svg">
<g filter="url(#filter0_d_0_1063)">
<circle cx="31.9141" cy="48.9141" r="17.9141" fill="white"/>
</g>
<g clip-path="url(#clip0_0_1063)">
<path d="M40.7912 44.7395C40.7377 44.353 40.6579 43.9396 40.5513 43.4997C40.4446 43.0599 40.2865 42.6867 40.0765 42.38C39.8666 42.0735 39.6315 41.9201 39.3717 41.9201C39.3417 41.7902 39.1967 41.8052 38.9367 41.9652C38.6768 42.1252 38.5551 42.1786 38.572 42.1252C38.5885 42.0718 38.4984 42.1384 38.3019 42.325C38.1053 42.5116 38.0071 42.6049 38.0071 42.6049L37.7121 42.8998C37.4523 43.1464 37.0741 43.3346 36.5776 43.4645C36.081 43.5947 35.5363 43.6745 34.9432 43.7045C34.35 43.7346 33.7552 43.7546 33.1587 43.7645C32.5622 43.7745 31.964 43.8045 31.3642 43.8545C30.7644 43.9045 30.2812 43.9894 29.9148 44.1094C29.1882 44.3493 28.5085 44.6676 27.8753 45.0642C27.2422 45.4607 26.6741 45.9239 26.1709 46.4538C25.6677 46.9836 25.2711 47.5985 24.9813 48.2983C24.6915 48.9979 24.5465 49.7311 24.5465 50.4975C24.5465 50.8508 24.5764 51.1973 24.6364 51.5372C24.6497 51.6038 24.703 51.7505 24.7964 51.9771C24.8897 52.2038 24.9363 52.3303 24.9363 52.3572C24.9363 52.4836 24.833 52.6438 24.6264 52.8368C24.4198 53.0301 24.1933 53.2168 23.9466 53.3966C23.7 53.5765 23.4735 53.7948 23.2668 54.0514C23.0604 54.3081 22.957 54.5531 22.957 54.7862C22.957 54.833 22.9619 54.8778 22.972 54.9213C22.9821 54.9646 22.9922 54.9962 23.0021 55.016C23.012 55.0362 23.0305 55.0694 23.057 55.1159C23.0838 55.1625 23.1036 55.1994 23.117 55.2259C23.2304 55.4191 23.3203 55.5592 23.3869 55.6458C23.4535 55.7323 23.5568 55.8122 23.6968 55.8857C23.8367 55.9589 24.0068 55.9956 24.2066 55.9956C24.4 55.9956 24.5999 55.8889 24.8065 55.6759C25.013 55.4627 25.188 55.2291 25.3313 54.9761C25.4745 54.7229 25.6246 54.4896 25.7811 54.2763C25.9377 54.0632 26.0694 53.9565 26.176 53.9565C26.3292 53.9565 26.6491 54.0799 27.1356 54.3265C27.6221 54.5732 27.9154 54.7131 28.0154 54.7465C28.9351 55.0597 29.888 55.2163 30.8744 55.2163C32.3674 55.2163 33.8267 54.8561 35.2531 54.1364C36.7128 53.4101 37.9039 52.5171 38.827 51.4574C39.7501 50.3975 40.3648 49.1215 40.6715 47.6284C40.8045 46.9753 40.8711 46.3322 40.8711 45.699C40.8711 45.4457 40.8445 45.1259 40.7912 44.7395ZM35.5627 48.1282C35.4361 48.2549 35.2859 48.3182 35.1126 48.3182C33.8997 48.3182 32.8552 48.4915 31.9787 48.838C31.1025 49.1845 30.2078 49.771 29.2947 50.5974C29.1616 50.724 28.9383 50.9439 28.625 51.2571C28.3118 51.5705 28.0651 51.807 27.8853 51.9669C27.7453 52.0935 27.5954 52.1569 27.4353 52.1569C27.2619 52.1569 27.112 52.0935 26.9854 51.9669C26.8587 51.8406 26.7954 51.6903 26.7954 51.5171C26.7954 51.3571 26.8587 51.2074 26.9854 51.0672C27.7984 50.1675 28.5832 49.436 29.3396 48.873C30.0961 48.3099 30.9609 47.8634 31.9339 47.5334C32.9068 47.2035 33.9664 47.0385 35.1127 47.0385C35.2859 47.0385 35.4361 47.1019 35.5627 47.2285C35.6892 47.3552 35.7527 47.5052 35.7527 47.6784C35.7526 47.8516 35.6895 48.0016 35.5627 48.1282Z" fill="#27AE60"/>
</g>
<defs>
<filter id="filter0_d_0_1063" x="-21" y="0" width="105.828" height="105.828" filterUnits="userSpaceOnUse" color-interpolation-filters="sRGB">
<feFlood flood-opacity="0" result="BackgroundImageFix"/>
<feColorMatrix in="SourceAlpha" type="matrix" values="0 0 0 0 0 0 0 0 0 0 0 0 0 0 0 0 0 0 127 0" result="hardAlpha"/>
<feOffset dy="4"/>
<feGaussianBlur stdDeviation="17.5"/>
<feColorMatrix type="matrix" values="0 0 0 0 0.0980392 0 0 0 0 0.509804 0 0 0 0 0.741176 0 0 0 0.18 0"/>
<feBlend mode="normal" in2="BackgroundImageFix" result="effect1_dropShadow_0_1063"/>
<feBlend mode="normal" in="SourceGraphic" in2="effect1_dropShadow_0_1063" result="shape"/>
</filter>
<clipPath id="clip0_0_1063">
<rect width="17.9141" height="17.9141" fill="white" transform="translate(22.957 39.9571)"/>
</clipPath>
</defs>
</svg>
