<svg width="22" height="22" viewBox="0 0 22 22" fill="none" xmlns="http://www.w3.org/2000/svg">
<path fill-rule="evenodd" clip-rule="evenodd" d="M18.7783 20.8596C19.3641 21.4454 20.3138 21.4454 20.8996 20.8596C21.4854 20.2738 21.4854 19.3241 20.8996 18.7383L13.1214 10.9601L20.8995 3.18198C21.4853 2.59619 21.4853 1.64645 20.8995 1.06066C20.3138 0.474873 19.364 0.474874 18.7782 1.06066L11.0001 8.8388L3.22193 1.06065C2.63615 0.47486 1.6864 0.474861 1.10061 1.06065C0.514827 1.64643 0.514828 2.59618 1.10061 3.18197L8.87877 10.9601L1.10056 18.7383C0.514768 19.3241 0.514769 20.2739 1.10055 20.8596C1.68634 21.4454 2.63609 21.4454 3.22187 20.8596L11.0001 13.0814L18.7783 20.8596Z" fill="white"/>
</svg>
