<svg width="138" height="92" viewBox="0 0 138 92" fill="none" xmlns="http://www.w3.org/2000/svg">
<path d="M0 0H138V92H0V0Z" fill="white"/>
<path d="M32.9475 51.5982C32.8377 53.3546 32.1791 54.6719 31.1911 55.6598C29.9836 56.7576 28.0077 57.3064 25.2634 57.3064C24.6048 57.3064 24.0559 57.1966 23.7266 57.0869C23.3973 56.8673 23.2875 56.6478 23.2875 56.2087C23.2875 55.8794 23.3973 55.4403 23.6168 54.6719L24.1657 52.696C23.1777 52.696 22.08 52.8057 21.092 52.9155L20.653 54.5621C20.4334 55.3305 20.2139 55.9891 19.9943 56.3185C19.7748 56.6478 19.4455 56.9771 19.1161 57.0869C18.677 57.1966 18.1282 57.3064 17.3598 57.3064L17.25 57.9651C18.1282 57.8553 19.4455 57.8553 21.2018 57.8553C22.08 57.8553 23.068 57.8553 24.3852 57.9651H26.6905C28.337 57.9651 29.8739 57.7455 31.3009 57.1966C32.728 56.6478 33.9355 55.8794 34.9234 54.8914C35.8016 53.9035 36.3505 52.5862 36.3505 51.1591C35.143 51.2689 34.0452 51.3787 32.9475 51.5982Z" fill="black"/>
<path d="M24.7143 45.3414H27.3488C30.4225 45.3414 31.9593 46.7685 31.9593 49.6225C31.9593 49.9519 31.9593 50.1714 31.8495 50.5007C32.9472 50.391 34.045 50.2812 35.1427 50.1714C35.1427 48.8541 34.7036 47.6466 33.9352 46.7685C33.057 45.8903 31.7397 45.2316 29.8736 44.9023C31.7397 44.3535 33.2765 43.4753 34.5938 42.3775C35.9111 41.2798 36.46 39.8528 36.46 38.316C36.46 36.9987 35.9111 36.0107 34.9231 35.2423C33.9352 34.4739 32.3984 34.1446 30.4225 34.1446H28.1172C27.5684 34.1446 26.9097 34.1446 25.9218 34.1446C24.2752 34.1446 22.9579 34.1446 22.0797 34.0348L21.8602 34.6935C22.6286 34.6935 23.2872 34.8032 23.5068 35.0228C23.8361 35.2423 23.9459 35.5716 23.9459 35.901C23.9459 36.34 23.8361 36.7791 23.7263 37.4378L19.8843 51.7082C20.982 51.7082 22.0797 51.5985 23.0677 51.4887L24.7143 45.3414ZM26.9097 36.9987C27.1293 36.1205 27.4586 35.4619 27.8977 35.1325C28.3368 34.8032 28.9954 34.6935 29.8736 34.6935C31.0811 34.6935 31.9593 35.0228 32.5081 35.5716C33.057 36.2303 33.3863 37.1085 33.3863 38.4257C33.3863 39.5235 33.1668 40.6212 32.6179 41.4994C32.069 42.4873 31.3006 43.2557 30.4225 43.8046C29.4345 44.3535 28.3368 44.6828 27.1293 44.6828H24.824L26.9097 36.9987Z" fill="black"/>
<path d="M47.1081 37.5475C47.3277 36.7791 47.5472 36.1204 47.7668 35.7911C47.9863 35.4618 48.3156 35.1325 48.6449 35.0227C48.9743 34.9129 49.6329 34.8032 50.4013 34.8032L50.6208 34.1445C49.6329 34.2543 48.3156 34.2543 46.5593 34.2543C44.6931 34.2543 43.3758 34.2543 42.3879 34.1445L42.2781 34.8032C43.0465 34.8032 43.7052 34.9129 43.9247 35.1325C44.254 35.2423 44.3638 35.5716 44.3638 36.0107C44.3638 36.34 44.254 36.8888 44.0345 37.5475L40.8511 49.5127C41.839 49.4029 42.9368 49.2932 43.9247 49.1834L47.1081 37.5475Z" fill="black"/>
<path d="M53.3653 54.8919C52.8164 55.7701 52.1578 56.3189 51.3894 56.758C50.621 57.1971 49.5232 57.3069 48.206 57.3069H45.9007C45.1323 57.3069 44.4737 57.1971 44.1444 57.0873C43.8151 56.9776 43.7053 56.6483 43.7053 56.2092C43.7053 55.7701 43.8151 55.331 44.0346 54.6723L45.2421 50.2814C44.2542 50.3912 43.1564 50.501 42.1685 50.6108L41.0707 54.6723C40.8512 55.4408 40.6317 56.0994 40.4121 56.4287C40.1926 56.758 39.8632 57.0873 39.5339 57.1971C39.2046 57.3069 38.546 57.4167 37.7776 57.4167L37.4482 57.9655C39.5339 57.8558 42.6076 57.8558 46.7789 57.8558C50.1819 57.8558 52.7067 57.8558 54.1337 57.9655C54.3532 56.4287 54.6826 55.0017 55.0119 53.7942C55.451 52.4769 55.6705 51.5987 55.7803 51.1596H55.0119C54.463 52.8062 53.9142 54.0137 53.3653 54.8919Z" fill="black"/>
<path d="M68.7334 37.8769L69.1725 46.1099C70.1604 46.0001 71.1484 45.8903 72.0266 45.7806L71.3679 33.9251H70.9288L61.5981 46.9881C61.8177 46.9881 62.147 46.8783 62.3666 46.8783L68.7334 37.8769Z" fill="black"/>
<path d="M73.6729 55.3307L73.124 46.8782C72.1361 46.9879 71.1481 47.0977 70.2699 47.2075L70.3797 48.7443H62.9152L63.3543 48.0857C63.1347 48.0857 62.8054 48.1954 62.5859 48.1954L58.0852 54.5623C56.8777 56.2089 55.8897 57.1968 54.9018 57.4164L54.792 58.075C55.4506 57.9652 56.3288 57.9652 57.207 57.9652C58.5243 57.9652 59.7318 57.9652 60.8295 58.075L60.9393 57.4164C59.4024 57.4164 58.5243 56.8675 58.5243 55.9893C58.5243 55.3307 59.0731 54.2329 60.0611 52.8059L62.4761 49.4029H70.3797L70.709 54.672C70.709 55.4404 70.709 55.9893 70.4895 56.3186C70.2699 56.6479 70.0504 56.9773 69.6113 57.087C69.1722 57.1968 68.6234 57.3066 67.9647 57.3066L67.8549 57.9652C68.7331 57.8554 69.9406 57.8554 71.697 57.8554C73.124 57.8554 74.3315 57.8554 75.2097 57.9652L75.3195 57.3066C74.8804 57.3066 74.5511 57.087 74.3315 56.7577C74.112 56.4284 73.7827 55.9893 73.6729 55.3307Z" fill="black"/>
<path d="M86.1874 37.4377C86.407 36.6693 86.6265 36.1204 86.8461 35.6813C87.0656 35.2423 87.3949 35.0227 87.7242 34.9129C88.0536 34.8032 88.6024 34.6934 89.2611 34.6934C91.6761 34.6934 93.4324 35.1325 94.5301 36.1204C95.6279 37.1084 96.1767 38.5354 96.1767 40.4016C96.1767 40.9504 96.1767 41.4993 96.067 42.0482C97.1647 41.8286 98.1527 41.7188 99.2504 41.4993C99.2504 41.3895 99.2504 41.2798 99.2504 41.17C99.2504 38.8648 98.482 37.1084 96.9451 35.9009C95.4083 34.6934 93.2129 34.1445 90.1392 34.1445C89.7001 34.1445 88.7122 34.1445 87.1754 34.2543H84.4311C83.1138 34.2543 82.0161 34.2543 81.3574 34.1445V34.6934C82.1258 34.6934 82.7845 34.8032 83.004 35.0227C83.3333 35.2423 83.4431 35.4618 83.4431 35.9009C83.4431 36.1204 83.3333 36.6693 83.1138 37.4377L81.3574 44.4632C82.3454 44.3534 83.4431 44.1338 84.4311 44.0241L86.1874 37.4377Z" fill="black"/>
<path d="M97.2746 43.1458C97.1648 45.3413 96.6159 47.427 95.8475 49.4029C94.8596 51.8179 93.4325 53.7938 91.5664 55.2208C89.7003 56.6479 87.395 57.4163 84.7605 57.4163C83.9921 57.4163 83.553 57.3065 83.2237 57.087C82.8943 56.8674 82.7846 56.6479 82.7846 56.2088C82.7846 55.8795 82.8943 55.4404 83.1139 54.672L85.6387 45.1218C84.6507 45.2315 83.553 45.4511 82.565 45.5608L80.0403 54.5622C79.8207 55.3306 79.6012 55.9893 79.3816 56.3186C79.1621 56.6479 78.8328 56.9772 78.5034 57.087C78.1741 57.1968 77.6253 57.3065 76.8568 57.3065L76.7471 57.9652C77.6253 57.8554 78.8328 57.8554 80.5891 57.8554C81.138 57.8554 82.0162 57.8554 83.2237 57.9652H85.0898C87.9439 57.9652 90.5784 57.1968 92.8837 55.7697C95.1889 54.3427 97.055 52.3668 98.3723 49.9518C99.6896 47.6465 100.348 45.2315 100.348 42.597C99.3603 42.8165 98.2625 43.0361 97.2746 43.1458Z" fill="black"/>
<path d="M103.422 54.5623C103.202 55.3307 102.982 55.9893 102.763 56.3187C102.543 56.648 102.214 56.9773 101.885 57.0871C101.555 57.1968 100.897 57.3066 100.128 57.3066L100.019 57.9652C102.104 57.8555 105.178 57.8555 109.349 57.8555C112.752 57.8555 115.277 57.8555 116.704 57.9652C116.924 56.4284 117.253 55.0014 117.582 53.7939C117.802 52.9157 118.021 52.1473 118.241 51.4887H117.472C116.924 53.0255 116.375 54.1232 115.826 55.0014C115.277 55.7698 114.618 56.3187 113.85 56.7577C113.082 57.1968 111.984 57.3066 110.667 57.3066H108.361C107.593 57.3066 106.934 57.1968 106.605 57.0871C106.276 56.9773 106.166 56.648 106.166 56.2089C106.166 55.7698 106.276 55.3307 106.495 54.6721L108.581 46.988H110.667C111.435 46.988 112.094 47.2075 112.423 47.5368C112.752 47.8662 112.972 48.415 112.972 49.0737C112.972 49.2932 112.972 49.6225 112.862 49.9518C112.862 50.2812 112.752 50.5007 112.752 50.6105L112.642 51.2691H113.411C113.85 49.403 114.179 47.8662 114.399 46.6587L114.618 45.8902C114.948 44.7925 115.277 43.4752 115.716 42.0482H114.948C114.838 42.2677 114.728 42.4873 114.728 42.7068C114.399 43.4752 114.179 44.0241 113.85 44.4632C113.521 44.9023 113.191 45.3414 112.642 45.6707C112.094 46 111.545 46.2196 110.776 46.2196H108.691L110.118 40.8407C109.02 41.0602 108.032 41.2798 106.934 41.4993L103.422 54.5623Z" fill="black"/>
<path d="M120.656 34.1445C119.339 34.2543 117.253 34.2543 114.289 34.2543C110.118 34.2543 107.044 34.2543 104.958 34.1445L104.849 34.8032C105.617 34.8032 106.276 34.9129 106.495 35.1325C106.825 35.2423 106.934 35.5716 106.934 36.0107C106.934 36.34 106.825 36.8888 106.605 37.5475L105.837 40.2918C106.934 40.0723 107.922 39.8527 109.02 39.6332L109.569 37.4377C109.788 36.6693 110.008 36.0107 110.227 35.6813C110.447 35.352 110.776 35.0227 111.106 34.9129C111.545 34.9129 112.094 34.8032 112.972 34.8032H115.277C116.485 34.8032 117.363 35.0227 117.802 35.352C118.241 35.6813 118.46 36.34 118.46 37.3279C118.46 37.4377 118.46 37.5475 118.46 37.767C118.79 37.6573 119.119 37.6573 119.448 37.5475C119.778 36.5595 120.217 35.4618 120.656 34.1445Z" fill="black"/>
<path d="M118.46 37.6572C118.46 38.2061 118.35 38.8647 118.241 39.8527H119.009C119.119 39.3038 119.229 38.6452 119.448 37.8767C119.448 37.767 119.558 37.5474 119.558 37.4377C119.229 37.5474 118.899 37.6572 118.46 37.6572Z" fill="black"/>
</svg>
