<svg width="108" height="72" viewBox="0 0 108 72" fill="none" xmlns="http://www.w3.org/2000/svg">
<path d="M0 0H108V72H0V0Z" fill="white"/>
<path d="M25.785 40.3812C25.6991 41.7558 25.1836 42.7867 24.4105 43.5599C23.4655 44.419 21.9191 44.8485 19.7714 44.8485C19.2559 44.8485 18.8264 44.7626 18.5686 44.6767C18.3109 44.5049 18.225 44.3331 18.225 43.9894C18.225 43.7317 18.3109 43.3881 18.4827 42.7867L18.9123 41.2403C18.1391 41.2403 17.28 41.3262 16.5068 41.4121L16.1632 42.7008C15.9914 43.3021 15.8195 43.8176 15.6477 44.0753C15.4759 44.3331 15.2182 44.5908 14.9605 44.6767C14.6168 44.7626 14.1873 44.8485 13.5859 44.8485L13.5 45.364C14.1873 45.2781 15.2182 45.2781 16.5927 45.2781C17.28 45.2781 18.0532 45.2781 19.0841 45.364H20.8882C22.1768 45.364 23.3795 45.1921 24.4964 44.7626C25.6132 44.3331 26.5582 43.7317 27.3314 42.9585C28.0186 42.1853 28.4482 41.1544 28.4482 40.0376C27.5032 40.1235 26.6441 40.2094 25.785 40.3812Z" fill="black"/>
<path d="M19.3415 35.4846H21.4033C23.8088 35.4846 25.0115 36.6014 25.0115 38.835C25.0115 39.0928 25.0115 39.2646 24.9256 39.5223C25.7847 39.4364 26.6438 39.3505 27.5029 39.2646C27.5029 38.2337 27.1592 37.2887 26.5579 36.6014C25.8706 35.9141 24.8397 35.3987 23.3793 35.141C24.8397 34.7114 26.0424 34.0241 27.0733 33.165C28.1042 32.306 28.5338 31.1891 28.5338 29.9864C28.5338 28.9555 28.1042 28.1823 27.3311 27.581C26.5579 26.9796 25.3552 26.7219 23.8088 26.7219H22.0047C21.5752 26.7219 21.0597 26.7219 20.2865 26.7219C18.9979 26.7219 17.967 26.7219 17.2797 26.636L17.1079 27.1514C17.7093 27.1514 18.2247 27.2373 18.3965 27.4091C18.6543 27.581 18.7402 27.8387 18.7402 28.0964C18.7402 28.44 18.6543 28.7837 18.5683 29.2991L15.5615 40.4673C16.4206 40.4673 17.2797 40.3814 18.0529 40.2955L19.3415 35.4846ZM21.0597 28.9555C21.2315 28.2682 21.4893 27.7528 21.8329 27.495C22.1765 27.2373 22.692 27.1514 23.3793 27.1514C24.3242 27.1514 25.0115 27.4091 25.4411 27.8387C25.8706 28.3541 26.1283 29.0414 26.1283 30.0723C26.1283 30.9314 25.9565 31.7905 25.527 32.4778C25.0974 33.251 24.4961 33.8523 23.8088 34.2819C23.0356 34.7114 22.1765 34.9691 21.2315 34.9691H19.4274L21.0597 28.9555Z" fill="black"/>
<path d="M36.8675 29.385C37.0393 28.7836 37.2112 28.2682 37.383 28.0104C37.5548 27.7527 37.8125 27.495 38.0702 27.4091C38.328 27.3232 38.8434 27.2373 39.4448 27.2373L39.6166 26.7218C38.8434 26.8077 37.8125 26.8077 36.438 26.8077C34.9775 26.8077 33.9466 26.8077 33.1734 26.7218L33.0875 27.2373C33.6889 27.2373 34.2043 27.3232 34.3762 27.495C34.6339 27.5809 34.7198 27.8386 34.7198 28.1823C34.7198 28.44 34.6339 28.8695 34.4621 29.385L31.9707 38.7491C32.7439 38.6632 33.603 38.5773 34.3762 38.4913L36.8675 29.385Z" fill="black"/>
<path d="M41.7644 42.9589C41.3349 43.6462 40.8194 44.0757 40.2181 44.4193C39.6167 44.763 38.7576 44.8489 37.7267 44.8489H35.9226C35.3213 44.8489 34.8058 44.763 34.5481 44.6771C34.2903 44.5912 34.2044 44.3334 34.2044 43.9898C34.2044 43.6462 34.2903 43.3025 34.4622 42.7871L35.4072 39.3507C34.634 39.4366 33.7749 39.5225 33.0017 39.6084L32.1426 42.7871C31.9708 43.3884 31.799 43.9039 31.6272 44.1616C31.4553 44.4193 31.1976 44.6771 30.9399 44.763C30.6822 44.8489 30.1667 44.9348 29.5653 44.9348L29.3076 45.3643C30.9399 45.2784 33.3453 45.2784 36.6099 45.2784C39.2731 45.2784 41.249 45.2784 42.3658 45.3643C42.5376 44.1616 42.7953 43.0448 43.0531 42.0998C43.3967 41.0689 43.5685 40.3816 43.6544 40.038H43.0531C42.6235 41.3266 42.194 42.2716 41.7644 42.9589Z" fill="black"/>
<path d="M53.7911 29.6428L54.1348 36.086C54.9079 36.0001 55.6811 35.9142 56.3684 35.8283L55.8529 26.5501H55.5093L48.207 36.7733C48.3788 36.7733 48.6366 36.6874 48.8084 36.6874L53.7911 29.6428Z" fill="black"/>
<path d="M57.6572 43.3023L57.2277 36.6873C56.4545 36.7732 55.6813 36.8591 54.994 36.945L55.08 38.1477H49.2381L49.5818 37.6323C49.4099 37.6323 49.1522 37.7182 48.9804 37.7182L45.4581 42.7009C44.5131 43.9896 43.74 44.7627 42.9668 44.9346L42.8809 45.45C43.3963 45.3641 44.0836 45.3641 44.7709 45.3641C45.8018 45.3641 46.7468 45.3641 47.6059 45.45L47.6918 44.9346C46.489 44.9346 45.8018 44.505 45.8018 43.8177C45.8018 43.3023 46.2313 42.4432 47.0045 41.3264L48.8945 38.6632H55.08L55.3377 42.7868C55.3377 43.3882 55.3377 43.8177 55.1659 44.0755C54.994 44.3332 54.8222 44.5909 54.4786 44.6768C54.1349 44.7627 53.7054 44.8486 53.1899 44.8486L53.104 45.3641C53.7913 45.2782 54.7363 45.2782 56.1109 45.2782C57.2277 45.2782 58.1727 45.2782 58.86 45.3641L58.9459 44.8486C58.6022 44.8486 58.3445 44.6768 58.1727 44.4191C58.0009 44.1614 57.7431 43.8177 57.6572 43.3023Z" fill="black"/>
<path d="M67.4509 29.2991C67.6227 28.6977 67.7945 28.2682 67.9664 27.9245C68.1382 27.5809 68.3959 27.4091 68.6536 27.3232C68.9114 27.2373 69.3409 27.1513 69.8564 27.1513C71.7464 27.1513 73.1209 27.495 73.98 28.2682C74.8391 29.0413 75.2686 30.1582 75.2686 31.6186C75.2686 32.0482 75.2686 32.4777 75.1827 32.9073C76.0418 32.7354 76.815 32.6495 77.6741 32.4777C77.6741 32.3918 77.6741 32.3059 77.6741 32.22C77.6741 30.4159 77.0727 29.0413 75.87 28.0963C74.6673 27.1513 72.9491 26.7218 70.5436 26.7218C70.2 26.7218 69.4268 26.7218 68.2241 26.8077H66.0764C65.0454 26.8077 64.1864 26.8077 63.6709 26.7218V27.1513C64.2723 27.1513 64.7877 27.2373 64.9595 27.4091C65.2173 27.5809 65.3032 27.7527 65.3032 28.0963C65.3032 28.2682 65.2173 28.6977 65.0454 29.2991L63.6709 34.7973C64.4441 34.7113 65.3032 34.5395 66.0764 34.4536L67.4509 29.2991Z" fill="black"/>
<path d="M76.1275 33.7663C76.0416 35.4845 75.612 37.1168 75.0107 38.6632C74.2375 40.5532 73.1207 42.0995 71.6602 43.2163C70.1998 44.3332 68.3957 44.9345 66.3339 44.9345C65.7325 44.9345 65.3889 44.8486 65.1311 44.6768C64.8734 44.505 64.7875 44.3332 64.7875 43.9895C64.7875 43.7318 64.8734 43.3882 65.0452 42.7868L67.0211 35.3127C66.248 35.3986 65.3889 35.5704 64.6157 35.6563L62.6398 42.7009C62.468 43.3022 62.2961 43.8177 62.1243 44.0754C61.9525 44.3332 61.6948 44.5909 61.437 44.6768C61.1793 44.7627 60.7498 44.8486 60.1484 44.8486L60.0625 45.3641C60.7498 45.2782 61.6948 45.2782 63.0693 45.2782C63.4989 45.2782 64.1861 45.2782 65.1311 45.3641H66.5916C68.8252 45.3641 70.887 44.7627 72.6911 43.6459C74.4952 42.5291 75.9557 40.9827 76.9866 39.0927C78.0175 37.2886 78.533 35.3986 78.533 33.3368C77.7598 33.5086 76.9007 33.6804 76.1275 33.7663Z" fill="black"/>
<path d="M80.9386 42.7009C80.7668 43.3023 80.5949 43.8177 80.4231 44.0755C80.2513 44.3332 79.9936 44.5909 79.7358 44.6768C79.4781 44.7627 78.9627 44.8486 78.3613 44.8486L78.2754 45.3641C79.9077 45.2782 82.3131 45.2782 85.5777 45.2782C88.2408 45.2782 90.2168 45.2782 91.3336 45.3641C91.5054 44.1614 91.7631 43.0446 92.0208 42.0996C92.1927 41.4123 92.3645 40.8109 92.5363 40.2955H91.9349C91.5054 41.4982 91.0758 42.3573 90.6463 43.0446C90.2168 43.6459 89.7013 44.0755 89.0999 44.4191C88.4986 44.7627 87.6395 44.8486 86.6086 44.8486H84.8045C84.2031 44.8486 83.6877 44.7627 83.4299 44.6768C83.1722 44.5909 83.0863 44.3332 83.0863 43.9896C83.0863 43.6459 83.1722 43.3023 83.344 42.7868L84.9763 36.7732H86.6086C87.2099 36.7732 87.7254 36.945 87.9831 37.2027C88.2408 37.4605 88.4127 37.89 88.4127 38.4055C88.4127 38.5773 88.4127 38.835 88.3268 39.0927C88.3268 39.3505 88.2408 39.5223 88.2408 39.6082L88.1549 40.1236H88.7563C89.0999 38.6632 89.3577 37.4605 89.5295 36.5155L89.7013 35.9141C89.959 35.055 90.2168 34.0241 90.5604 32.9073H89.959C89.8731 33.0791 89.7872 33.2509 89.7872 33.4227C89.5295 34.0241 89.3577 34.4536 89.0999 34.7973C88.8422 35.1409 88.5845 35.4846 88.1549 35.7423C87.7254 36 87.2958 36.1718 86.6945 36.1718H85.0622L86.179 31.9623C85.3199 32.1341 84.5468 32.3059 83.6877 32.4777L80.9386 42.7009Z" fill="black"/>
<path d="M94.4266 26.7218C93.3957 26.8077 91.7634 26.8077 89.4438 26.8077C86.1793 26.8077 83.7738 26.8077 82.1416 26.7218L82.0557 27.2373C82.657 27.2373 83.1725 27.3232 83.3443 27.495C83.602 27.5809 83.6879 27.8386 83.6879 28.1823C83.6879 28.44 83.602 28.8695 83.4302 29.385L82.8288 31.5327C83.6879 31.3609 84.4611 31.1891 85.3202 31.0173L85.7498 29.2991C85.9216 28.6977 86.0934 28.1823 86.2652 27.9245C86.437 27.6668 86.6948 27.4091 86.9525 27.3232C87.2961 27.3232 87.7257 27.2373 88.4129 27.2373H90.217C91.162 27.2373 91.8493 27.4091 92.1929 27.6668C92.5366 27.9245 92.7084 28.44 92.7084 29.2132C92.7084 29.2991 92.7084 29.385 92.7084 29.5568C92.9661 29.4709 93.2238 29.4709 93.4816 29.385C93.7393 28.6118 94.0829 27.7527 94.4266 26.7218Z" fill="black"/>
<path d="M92.708 29.4709C92.708 29.9004 92.622 30.4159 92.5361 31.189H93.1375C93.2234 30.7595 93.3093 30.244 93.4811 29.6427C93.4811 29.5568 93.567 29.385 93.567 29.299C93.3093 29.385 93.0516 29.4709 92.708 29.4709Z" fill="black"/>
</svg>
