<svg width="37" height="35" viewBox="0 0 37 35" fill="none" xmlns="http://www.w3.org/2000/svg">
<path d="M36.9997 7.38079C36.9997 6.29032 36.5607 5.2445 35.7793 4.47342C34.9979 3.70234 33.9382 3.26915 32.8331 3.26915H28.7314V1.6519C28.7314 1.40958 28.6338 1.17717 28.4602 1.00582C28.2865 0.834469 28.051 0.738205 27.8055 0.738205C27.5599 0.738205 27.3244 0.834469 27.1507 1.00582C26.9771 1.17717 26.8796 1.40958 26.8796 1.6519V3.26915H10.917V1.6519C10.917 1.40958 10.8194 1.17717 10.6458 1.00582C10.4722 0.834469 10.2367 0.738205 9.99109 0.738205C9.74553 0.738205 9.51002 0.834469 9.33638 1.00582C9.16274 1.17717 9.06519 1.40958 9.06519 1.6519V3.26915H4.96344C3.8584 3.26915 2.79861 3.70234 2.01723 4.47342C1.23585 5.2445 0.796875 6.29032 0.796875 7.38079V30.1502C0.796875 31.2406 1.23585 32.2864 2.01723 33.0575C2.79861 33.8286 3.8584 34.2618 4.96344 34.2618H32.8331C33.9382 34.2618 34.9979 33.8286 35.7793 33.0575C36.5607 32.2864 36.9997 31.2406 36.9997 30.1502V7.38079ZM35.1479 30.1547C35.1479 30.4547 35.088 30.7517 34.9717 31.0289C34.8553 31.306 34.6848 31.5578 34.4699 31.7699C34.2549 31.982 33.9998 32.1503 33.7189 32.2651C33.4381 32.3799 33.1371 32.439 32.8331 32.439H4.96344C4.65946 32.439 4.35846 32.3799 4.07762 32.2651C3.79678 32.1503 3.5416 31.982 3.32666 31.7699C3.11171 31.5578 2.94121 31.306 2.82488 31.0289C2.70855 30.7517 2.64868 30.4547 2.64868 30.1547V14.2792H35.1479V30.1547ZM35.1479 12.4564H2.64868V7.38079C2.64868 6.77497 2.89256 6.19397 3.32666 5.76559C3.76076 5.33721 4.34953 5.09655 4.96344 5.09655H9.06982V7.62749C9.06982 7.86982 9.16737 8.10222 9.34101 8.27357C9.51465 8.44492 9.75015 8.54119 9.99572 8.54119C10.2413 8.54119 10.4768 8.44492 10.6504 8.27357C10.8241 8.10222 10.9216 7.86982 10.9216 7.62749V5.09655H26.8796V7.62749C26.8796 7.86982 26.9771 8.10222 27.1507 8.27357C27.3244 8.44492 27.5599 8.54119 27.8055 8.54119C28.051 8.54119 28.2865 8.44492 28.4602 8.27357C28.6338 8.10222 28.7314 7.86982 28.7314 7.62749V5.09655H32.8331C33.447 5.09655 34.0358 5.33721 34.4699 5.76559C34.904 6.19397 35.1479 6.77497 35.1479 7.38079V12.4564Z" fill="white"/>
<path d="M11.9592 17.0432H11.9546C10.9242 17.0432 10.0889 17.8674 10.0889 18.8843V18.8888C10.0889 19.9056 10.9242 20.7299 11.9546 20.7299H11.9592C12.9896 20.7299 13.8249 19.9056 13.8249 18.8888V18.8843C13.8249 17.8674 12.9896 17.0432 11.9592 17.0432Z" fill="white"/>
<path d="M16.5881 17.0432H16.5835C15.5531 17.0432 14.7178 17.8674 14.7178 18.8843V18.8888C14.7178 19.9056 15.5531 20.7299 16.5835 20.7299H16.5881C17.6185 20.7299 18.4538 19.9056 18.4538 18.8888V18.8843C18.4538 17.8674 17.6185 17.0432 16.5881 17.0432Z" fill="white"/>
<path d="M21.218 17.0432H21.2134C20.183 17.0432 19.3477 17.8674 19.3477 18.8843V18.8888C19.3477 19.9056 20.183 20.7299 21.2134 20.7299H21.218C22.2484 20.7299 23.0837 19.9056 23.0837 18.8888V18.8843C23.0837 17.8674 22.2484 17.0432 21.218 17.0432Z" fill="white"/>
<path d="M25.8469 17.0432H25.8423C24.8119 17.0432 23.9766 17.8674 23.9766 18.8843V18.8888C23.9766 19.9056 24.8119 20.7299 25.8423 20.7299H25.8469C26.8773 20.7299 27.7126 19.9056 27.7126 18.8888V18.8843C27.7126 17.8674 26.8773 17.0432 25.8469 17.0432Z" fill="white"/>
<path d="M30.4768 17.0432H30.4721C29.4417 17.0432 28.6064 17.8674 28.6064 18.8843V18.8888C28.6064 19.9056 29.4417 20.7299 30.4721 20.7299H30.4768C31.5072 20.7299 32.3425 19.9056 32.3425 18.8888V18.8843C32.3425 17.8674 31.5072 17.0432 30.4768 17.0432Z" fill="white"/>
<path d="M7.32931 21.6116H7.32468C6.29428 21.6116 5.45898 22.4359 5.45898 23.4527V23.4573C5.45898 24.4741 6.29428 25.2984 7.32468 25.2984H7.32931C8.3597 25.2984 9.195 24.4741 9.195 23.4573V23.4527C9.195 22.4359 8.3597 21.6116 7.32931 21.6116Z" fill="white"/>
<path d="M11.9592 21.6116H11.9546C10.9242 21.6116 10.0889 22.4359 10.0889 23.4527V23.4573C10.0889 24.4741 10.9242 25.2984 11.9546 25.2984H11.9592C12.9896 25.2984 13.8249 24.4741 13.8249 23.4573V23.4527C13.8249 22.4359 12.9896 21.6116 11.9592 21.6116Z" fill="white"/>
<path d="M16.5881 21.6116H16.5835C15.5531 21.6116 14.7178 22.4359 14.7178 23.4527V23.4573C14.7178 24.4741 15.5531 25.2984 16.5835 25.2984H16.5881C17.6185 25.2984 18.4538 24.4741 18.4538 23.4573V23.4527C18.4538 22.4359 17.6185 21.6116 16.5881 21.6116Z" fill="white"/>
<path d="M21.218 21.6116H21.2134C20.183 21.6116 19.3477 22.4359 19.3477 23.4527V23.4573C19.3477 24.4741 20.183 25.2984 21.2134 25.2984H21.218C22.2484 25.2984 23.0837 24.4741 23.0837 23.4573V23.4527C23.0837 22.4359 22.2484 21.6116 21.218 21.6116Z" fill="white"/>
<path d="M25.8469 21.6116H25.8423C24.8119 21.6116 23.9766 22.4359 23.9766 23.4527V23.4573C23.9766 24.4741 24.8119 25.2984 25.8423 25.2984H25.8469C26.8773 25.2984 27.7126 24.4741 27.7126 23.4573V23.4527C27.7126 22.4359 26.8773 21.6116 25.8469 21.6116Z" fill="white"/>
<path d="M30.4768 21.6116H30.4721C29.4417 21.6116 28.6064 22.4359 28.6064 23.4527V23.4573C28.6064 24.4741 29.4417 25.2984 30.4721 25.2984H30.4768C31.5072 25.2984 32.3425 24.4741 32.3425 23.4573V23.4527C32.3425 22.4359 31.5072 21.6116 30.4768 21.6116Z" fill="white"/>
<path d="M7.32931 26.1801H7.32468C6.29428 26.1801 5.45898 27.0044 5.45898 28.0212V28.0258C5.45898 29.0426 6.29428 29.8669 7.32468 29.8669H7.32931C8.3597 29.8669 9.195 29.0426 9.195 28.0258V28.0212C9.195 27.0044 8.3597 26.1801 7.32931 26.1801Z" fill="white"/>
<path d="M11.9592 26.1801H11.9546C10.9242 26.1801 10.0889 27.0044 10.0889 28.0212V28.0258C10.0889 29.0426 10.9242 29.8669 11.9546 29.8669H11.9592C12.9896 29.8669 13.8249 29.0426 13.8249 28.0258V28.0212C13.8249 27.0044 12.9896 26.1801 11.9592 26.1801Z" fill="white"/>
<path d="M16.5881 26.1801H16.5835C15.5531 26.1801 14.7178 27.0044 14.7178 28.0212V28.0258C14.7178 29.0426 15.5531 29.8669 16.5835 29.8669H16.5881C17.6185 29.8669 18.4538 29.0426 18.4538 28.0258V28.0212C18.4538 27.0044 17.6185 26.1801 16.5881 26.1801Z" fill="white"/>
<path d="M21.218 26.1801H21.2134C20.183 26.1801 19.3477 27.0044 19.3477 28.0212V28.0258C19.3477 29.0426 20.183 29.8669 21.2134 29.8669H21.218C22.2484 29.8669 23.0837 29.0426 23.0837 28.0258V28.0212C23.0837 27.0044 22.2484 26.1801 21.218 26.1801Z" fill="white"/>
<path d="M25.8469 26.1801H25.8423C24.8119 26.1801 23.9766 27.0044 23.9766 28.0212V28.0258C23.9766 29.0426 24.8119 29.8669 25.8423 29.8669H25.8469C26.8773 29.8669 27.7126 29.0426 27.7126 28.0258V28.0212C27.7126 27.0044 26.8773 26.1801 25.8469 26.1801Z" fill="white"/>
</svg>
