<svg width="28" height="35" viewBox="0 0 28 35" fill="fffff" xmlns="http://www.w3.org/2000/svg">
<path d="M0.0864983 33.7672L4.89211 24.0068C4.98802 23.812 5.15418 23.6628 5.35346 23.5814L7.7442 22.5595L3.6017 15.8932C3.5918 15.8772 3.58248 15.861 3.57358 15.8445C2.74999 14.301 2.33236 12.6331 2.33236 10.8874C2.33236 7.95075 3.53171 5.19765 5.70951 3.13532C7.88695 1.07346 10.7716 -0.0401808 13.832 0.00110825C16.8042 0.0406883 19.6028 1.18701 21.7122 3.22904C23.8215 5.27093 24.9928 7.96723 25.0104 10.8214C25.0212 12.5656 24.592 14.3025 23.7694 15.8444C23.7606 15.8609 23.7513 15.8772 23.7414 15.8932L19.5989 22.5594L22.0035 23.5869C22.2002 23.6709 22.359 23.8198 22.4509 24.0067L27.2564 33.7672C27.4173 34.0936 27.3494 34.4818 27.0864 34.74C26.8235 34.9982 26.4211 35.0721 26.0774 34.9253L20.0573 32.3518L14.0372 34.9253C13.8043 35.0247 13.5384 35.0247 13.3055 34.9253L7.28535 32.3518L1.26521 34.9253C1.14759 34.9755 1.02308 35 0.899622 35C0.66247 35 0.429163 34.9099 0.256229 34.74C-0.00655365 34.4818 -0.0743313 34.0938 0.0864983 33.7672ZM22.1812 15.0326C22.8739 13.7248 23.2206 12.3116 23.2114 10.8318C23.1809 5.88056 18.962 1.7967 13.8069 1.72814C11.2321 1.69492 8.80451 2.63041 6.97266 4.36517C5.14023 6.10033 4.13118 8.41662 4.13118 10.8875C4.13118 12.3476 4.47783 13.742 5.16159 15.0326L12.899 27.4842C13.1352 27.8642 13.5178 27.9053 13.6714 27.9053C13.825 27.9053 14.2076 27.8642 14.4438 27.4842L22.1812 15.0326ZM6.91969 30.6176C7.15257 30.5181 7.41848 30.5181 7.65136 30.6176L13.6715 33.191L19.6916 30.6176C19.9245 30.5181 20.1904 30.5181 20.4233 30.6176L24.5938 32.4004L20.9672 25.0347L18.6706 24.0533L15.9888 28.3691C15.4973 29.1601 14.631 29.6324 13.6716 29.6324C12.7123 29.6324 11.846 29.1601 11.3544 28.3691L8.67266 24.0534L6.37583 25.0351L2.74949 32.4004L6.91969 30.6176Z" fill="#ffffff"/>
<path d="M13.6713 6.9458C15.9349 6.9458 17.7764 8.71392 17.7764 10.8873C17.7764 13.0606 15.9349 14.8287 13.6713 14.8287C11.4078 14.8288 9.56633 13.0606 9.56633 10.8873C9.56633 8.71392 11.4078 6.9458 13.6713 6.9458ZM13.6713 13.1016C14.9429 13.1016 15.9775 12.1084 15.9775 10.8873C15.9775 9.6663 14.943 8.67297 13.6713 8.67297C12.3997 8.67297 11.3652 9.6663 11.3652 10.8873C11.3652 12.1082 12.3997 13.1016 13.6713 13.1016Z" fill="#ffffff"/>
</svg>
