<svg width="10" height="20" viewBox="0 0 10 20" fill="none" xmlns="http://www.w3.org/2000/svg">
<path d="M0.397519 10.3496H2.48191V18.9648C2.48191 19.1348 2.61918 19.2727 2.7886 19.2727H6.32276C6.49218 19.2727 6.62946 19.1348 6.62946 18.9648V10.3902H9.02563C9.18144 10.3902 9.31252 10.2728 9.33031 10.1174L9.69424 6.94573C9.70424 6.85847 9.67669 6.77108 9.61854 6.70562C9.56033 6.64009 9.47703 6.60259 9.38962 6.60259H6.62958V4.61442C6.62958 4.01509 6.951 3.71118 7.58501 3.71118C7.67536 3.71118 9.38962 3.71118 9.38962 3.71118C9.55904 3.71118 9.69632 3.57329 9.69632 3.40326V0.491959C9.69632 0.321865 9.55904 0.184041 9.38962 0.184041H6.9026C6.88506 0.183179 6.84611 0.181763 6.78869 0.181763C6.35717 0.181763 4.85723 0.26681 3.67239 1.36115C2.35959 2.57385 2.54208 4.02587 2.58569 4.27762V6.60253H0.397519C0.228099 6.60253 0.0908203 6.74035 0.0908203 6.91044V10.0416C0.0908203 10.2117 0.228099 10.3496 0.397519 10.3496Z" fill="#303030"/>
</svg>
