<svg width="20" height="19" viewBox="0 0 20 19" fill="none" xmlns="http://www.w3.org/2000/svg">
<path d="M3.09035 0.490479H16.7678C18.0672 0.490479 19.1295 1.55735 19.1295 2.86194V16.5937C19.1295 17.8979 18.0672 18.9641 16.7678 18.9641H3.09035C1.79093 18.9641 0.727539 17.8979 0.727539 16.5937V2.86194C0.727539 1.55735 1.79093 0.490479 3.09035 0.490479ZM14.1331 2.54226C13.6769 2.54226 13.3047 2.91736 13.3047 3.37518V5.36519C13.3047 5.82319 13.6769 6.19743 14.1331 6.19743H16.2127C16.6682 6.19743 17.0412 5.82319 17.0412 5.36519V3.37518C17.0412 2.91736 16.6682 2.54226 16.2127 2.54226H14.1331ZM17.0491 8.30272H15.43C15.5835 8.80617 15.6667 9.33708 15.6667 9.88906C15.6667 12.961 13.1048 15.4525 9.94581 15.4525C6.7876 15.4525 4.22563 12.961 4.22563 9.88906C4.22563 9.33708 4.30966 8.80617 4.46246 8.30272H2.77322V16.1073C2.77322 16.5115 3.10194 16.8403 3.50415 16.8403H16.3185C16.721 16.8403 17.0491 16.5115 17.0491 16.1073V8.30272ZM9.94587 6.09249C7.90571 6.09249 6.25076 7.70155 6.25076 9.68823C6.25076 11.6729 7.90571 13.2832 9.94587 13.2832C11.9871 13.2832 13.6421 11.6729 13.6421 9.68823C13.6421 7.70148 11.9871 6.09249 9.94587 6.09249Z" fill="#303030"/>
</svg>
