<svg width="20" height="17" viewBox="0 0 20 17" fill="none" xmlns="http://www.w3.org/2000/svg">
<path d="M19.312 2.71608C19.0132 2.8491 18.7061 2.96136 18.3923 3.05251C18.7638 2.63066 19.0471 2.1343 19.22 1.59113C19.2588 1.46938 19.2186 1.33611 19.1189 1.25648C19.0194 1.17679 18.8811 1.16725 18.7714 1.23247C18.105 1.62931 17.386 1.9145 16.632 2.08127C15.8726 1.33623 14.8411 0.912231 13.7748 0.912231C11.5239 0.912231 9.69267 2.75069 9.69267 5.01043C9.69267 5.18841 9.70389 5.3654 9.7261 5.53993C6.93299 5.29372 4.33629 3.91542 2.55315 1.71941C2.4896 1.64113 2.3917 1.59895 2.29147 1.60702C2.19118 1.6149 2.10107 1.67168 2.05041 1.75894C1.68875 2.38198 1.49755 3.09457 1.49755 3.81959C1.49755 4.80708 1.84872 5.74402 2.46905 6.47612C2.28043 6.41054 2.09739 6.32857 1.9227 6.2312C1.82891 6.1788 1.71445 6.1796 1.62127 6.23324C1.52804 6.28688 1.46958 6.38553 1.46713 6.49337C1.4667 6.51153 1.4667 6.5297 1.4667 6.54811C1.4667 8.02212 2.25688 9.34918 3.46496 10.0725C3.36118 10.0621 3.25745 10.047 3.1544 10.0272C3.04816 10.0068 2.93891 10.0442 2.86727 10.1256C2.7955 10.2069 2.77176 10.3202 2.80482 10.4236C3.25199 11.8253 4.40328 12.8562 5.79508 13.1706C4.64072 13.8965 3.32063 14.2767 1.93484 14.2767C1.64569 14.2767 1.35487 14.2596 1.07026 14.2258C0.928869 14.2089 0.793676 14.2927 0.745525 14.4277C0.697373 14.5628 0.748408 14.7134 0.868695 14.7908C2.64896 15.9368 4.70746 16.5425 6.82154 16.5425C10.9776 16.5425 13.5774 14.5749 15.0266 12.9243C16.8337 10.8661 17.8701 8.14183 17.8701 5.45008C17.8701 5.33763 17.8683 5.22407 17.8649 5.11088C18.5779 4.57159 19.1917 3.91893 19.6912 3.16878C19.7671 3.05485 19.7588 2.90428 19.6709 2.7994C19.5832 2.69446 19.4369 2.66053 19.312 2.71608Z" fill="#303030"/>
</svg>
